<svg xmlns="http://www.w3.org/2000/svg" xmlns:xlink="http://www.w3.org/1999/xlink" width="2000" zoomAndPan="magnify" viewBox="0 0 1500 1499.999933" height="2000" preserveAspectRatio="xMidYMid meet" version="1.0"><defs><g/><clipPath id="2eef323c07"><path d="M 305.320312 274.40625 L 1170 274.40625 L 1170 1225.40625 L 305.320312 1225.40625 Z M 305.320312 274.40625 " clip-rule="nonzero"/></clipPath></defs><g clip-path="url(#2eef323c07)"><path fill="#3459e6" d="M 305.367188 1225.59375 C 343.9375 1162.035156 455.300781 1110.429688 524.289062 1090.871094 C 658.464844 1051.761719 737.777344 1060.996094 870.867188 1017.539062 C 1009.933594 971.90625 1109.886719 902.917969 1157.6875 766.023438 C 1194.628906 851.855469 1138.132812 1020.796875 1057.734375 1065.339844 C 966.472656 1115.863281 911.066406 1121.292969 732.886719 1121.292969 C 544.929688 1121.292969 538.414062 1122.921875 453.667969 1146.824219 C 403.691406 1159.863281 348.285156 1197.886719 305.367188 1225.59375 Z M 755.703125 957.238281 C 813.285156 933.335938 845.878906 917.585938 899.65625 886.621094 C 981.683594 839.902344 1059.910156 767.652344 1085.984375 677.480469 C 1106.625 605.773438 1094.675781 527.546875 1065.882812 458.558594 C 1056.648438 436.285156 1045.785156 415.101562 1033.835938 393.914062 C 1019.167969 537.871094 974.078125 680.738281 879.558594 789.925781 C 841.53125 833.925781 727.453125 940.941406 635.648438 1004.5 C 668.242188 988.746094 723.109375 970.820312 755.703125 957.238281 Z M 817.628906 776.34375 C 848.050781 737.234375 863.261719 716.046875 888.792969 673.675781 C 927.363281 609.03125 946.375 530.265625 928.992188 456.929688 C 915.410156 398.261719 884.445312 343.394531 837.730469 307 C 822.519531 295.046875 806.765625 284.726562 789.925781 274.40625 C 836.101562 380.335938 863.804688 521.03125 840.988281 633.476562 C 831.753906 679.109375 801.332031 775.800781 752.988281 856.199219 C 769.285156 832.839844 800.246094 798.617188 817.628906 776.34375 Z M 817.628906 776.34375 " fill-opacity="1" fill-rule="nonzero"/></g><g fill="#ffffff" fill-opacity="1"><g transform="translate(749.055737, 1390.11034)"><g><path d="M 41.125 0 L 35.375 0 L 31.15625 -12.53125 L 11.6875 -12.53125 L 7.4375 0 L 1.8125 0 L 17.75 -45.6875 L 25.1875 -45.6875 Z M 21.03125 -40.15625 L 13.1875 -17.03125 L 29.625 -17.03125 L 21.8125 -40.15625 Z M 21.03125 -40.15625 "/></g></g></g></svg>